# AST/ASF file generated using VICON BodyLanguage
# -----------------------------------------------
:version 1.10
:name VICON
:units
  mass 1.0
  length 0.45
  angle deg
:documentation
   .ast/.asf automatically generated from VICON data using
   VICON BodyBuilder and BodyLanguage model FoxedUp or BRILLIANT.MOD
:root
   order TX TY TZ RX RY RZ
   axis XYZ
   position 0 0 0  
   orientation 0 0 0 
:bonedata
  begin
     id 1 
     name lhipjoint
     direction 0.610259 -0.730986 0.305356 
     length 2.50941 
     axis 0 0 0  XYZ
  end
  begin
     id 2 
     name lfemur
     direction 0.34202 -0.939693 0  
     length 7.48822  
     axis 0 0 20  XYZ
    dof rx ry rz
    limits (-160.0 20.0)
           (-70.0 70.0)
           (-60.0 70.0)
  end
  begin
     id 3 
     name ltibia
     direction 0.34202 -0.939693 0   
     length 7.60141   
     axis 0 0 20   XYZ
    dof rx
    limits (-10.0 170.0)
  end
  begin
     id 4 
     name lfoot
     direction 0.0673488 -0.185039 0.980421   
     length 2.04049   
     axis -90 7.62852e-016 20   XYZ
    dof rx rz
    limits (-45.0 90.0)
           (-70.0 20.0)
  end
  begin
     id 5 
     name ltoes
     direction 1.5356e-011 -4.21729e-011 1   
     length 1.02897   
     axis -90 7.62852e-016 20   XYZ
    dof rx
    limits (-90.0 20.0)
  end
  begin
     id 6 
     name rhipjoint
     direction -0.57612 -0.754205 0.315056   
     length 2.43216  
     axis 0 0 0  XYZ 
  end
  begin
     id 7 
     name rfemur
     direction -0.34202 -0.939693 0   
     length 7.42799   
     axis 0 0 -20   XYZ
    dof rx ry rz
    limits (-160.0 20.0)
           (-70.0 70.0)
           (-70.0 60.0)
  end
  begin
     id 8 
     name rtibia
     direction -0.34202 -0.939693 0   
     length 7.69484   
     axis 0 0 -20   XYZ
    dof rx
    limits (-10.0 170.0)
 end
 begin
     id 9 
     name rfoot
     direction -0.111837 -0.30727 0.945028   
     length 2.15769  
     axis -90 -7.62852e-016 -20   XYZ
    dof rx rz
    limits (-45.0 90.0)
           (-20.0 70.0)
  end
  begin
     id 10 
     name rtoes
     direction -1.53539e-011 -4.21878e-011 1   
     length 1.07391   
     axis -90 -7.62852e-016 -20   XYZ
    dof rx
    limits (-90.0 20.0)
  end
  begin
     id 11 
     name lowerback
     direction 0.00552624 0.990109 -0.140195   
     length 2.12403   
     axis 0 0 0   XYZ
    dof rx ry rz
    limits (-20.0 45.0)
           (-30.0 30.0)
           (-30.0 30.0)
  end
  begin
     id 12 
     name upperback
     direction 0.00361898 0.999976 -0.00584723   
     length 2.13232   
     axis 0 0 0   XYZ
    dof rx ry rz
    limits (-20.0 45.0)
           (-30.0 30.0)
           (-30.0 30.0)
  end
  begin
     id 13 
     name thorax
     direction -0.000331275 0.998253 0.0590847   
     length 2.17688   
     axis 0 0 0   XYZ
    dof rx ry rz
    limits (-20.0 45.0)
           (-30.0 30.0)
           (-30.0 30.0)
  end
  begin
     id 14 
     name lowerneck
     direction -0.0561561 0.979832 0.19177   
     length 1.64159   
     axis 0 0 0   XYZ
    dof rx ry rz
    limits (-20.0 45.0)
           (-30.0 30.0)
           (-30.0 30.0)
  end
  begin
     id 15 
     name upperneck
     direction 0.0827153 0.979385 -0.184293   
     length 1.68939   
     axis 0 0 0   XYZ
    dof rx ry rz
    limits (-20.0 45.0)
           (-30.0 30.0)
           (-30.0 30.0)
  end
  begin
     id 16
     name head
     direction 0.0278583 0.995936 -0.0856488  
     length 1.70207  
     axis 0 0 0   XYZ
    dof rx ry rz
    limits (-20.0 45.0)
           (-30.0 30.0)
           (-30.0 30.0)
  end
  begin
     id 17 
     name lclavicle
     direction 0.950993 0.301131 -0.0702275  
     length 3.41652  
     axis 0 0 0   XYZ
    dof ry rz
    limits (-20.0 10.0)
           (0.0 20.0)
  end
  begin
     id 18 
     name lhumerus
     direction 1 -4.48981e-011 -3.9662e-029   
     length 5.32955   
     axis 180 -30 -90   XYZ
    dof rx ry rz
    limits (-60.0 90.0)
           (-90.0 90.0)
           (-90.0 90.0)
  end
  begin
     id 19
     name lradius
     direction 1 -4.48925e-011 -9.0549e-027   
     length 3.69232   
     axis 180 -30 -90   XYZ
    dof rx
    limits (-10.0 170.0)
  end
  begin
     id 20
     name lwrist
     direction 1 -4.49007e-011 -1.49005e-026   
     length 1.84616   
     axis 9.0955e-015 90 90   XYZ
    dof ry
    limits (-180.0 0.0)
 end
  begin
     id 21 
     name lhand
     direction 1 -4.49016e-011 -2.98023e-026   
     length 0.536598   
     axis 1.90115e-014 90 90   XYZ
    dof rx rz
    limits (-90.0 90.0)
           (-45.0 45.0)
  end
  begin
     id 22 
     name lfingers
     direction 1 -4.48924e-011 -5.9578e-026   
     length 0.432619   
     axis 3.80223e-014 90 90   XYZ
    dof rx
    limits (0.0 90.0)
  end
  begin
     id 23
     name lthumb
     direction 0.707107 -6.34947e-011 0.707107   
     length 0.621157   
     axis -90 45 -3.84942e-014   XYZ
    dof rx rz
    limits (-45.0 45.0)
           (-45.0 45.0)
  end
  begin
     id 24 
     name rclavicle
     direction -0.955495 0.276497 -0.102848   
     length 3.36357  
     axis 0 0 0   XYZ 
    dof ry rz
    limits (-10.0 20.0)
           (-20.0 0.0)
  end
  begin
     id 25 
     name rhumerus
     direction -1 -4.48961e-011 3.30983e-027  
     length 5.23431   
     axis 180 30 90   XYZ
    dof rx ry rz
    limits (-90.0 60.0)
           (-90.0 90.0)
           (-90.0 90.0)
  end
  begin
     id 26 
     name rradius
     direction -1 -4.48965e-011 -6.63263e-027   
     length 3.55301   
     axis 180 30 90   XYZ
    dof rx
    limits (-10.0 170.0)
  end
  begin
     id 27 
     name rwrist
     direction -1 -4.48942e-011 -1.48958e-026   
     length 1.77651   
     axis 9.0955e-015 -90 -90   XYZ
    dof ry
    limits (-180.0 0.0)
  end
  begin
     id 28
     name rhand
     direction -1 -4.48977e-011 -2.97966e-026   
     length 0.772522   
     axis 1.90115e-014 -90 -90   XYZ
    dof rx rz
    limits (-90.0 90.0)
           (-45.0 45.0)
  end
  begin
     id 29
     name rfingers
     direction -1 -4.49135e-011 -5.96389e-026   
     length 0.622827   
     axis 3.80223e-014 -90 -90   XYZ
    dof rx
    limits (0.0 90.0)
  end
  begin
     id 30
     name rthumb
     direction -0.707107 -6.34969e-011 0.707107   
     length 0.894259   
     axis -90 -45 3.84942e-014   XYZ
    dof rx rz
    limits (-45.0 45.0)
           (-45.0 45.0)
  end
:hierarchy
  begin
    root lhipjoint rhipjoint lowerback
    lhipjoint lfemur
    lfemur ltibia
    ltibia lfoot
    lfoot ltoes
    rhipjoint rfemur
    rfemur rtibia
    rtibia rfoot
    rfoot rtoes
    lowerback upperback
    upperback thorax
    thorax lowerneck lclavicle rclavicle
    lowerneck upperneck
    upperneck head
    lclavicle lhumerus
    lhumerus lradius
    lradius lwrist
    lwrist lhand lthumb
    lhand lfingers
    rclavicle rhumerus
    rhumerus rradius
    rradius rwrist
    rwrist rhand rthumb
    rhand rfingers
  end

#!OML:ASF F:\VICON\USERDATA\INSTALL\rory3\rory3.ASF
:FULLY-SPECIFIED
:DEGREES
17
root -13.8496 18.0281 -11.3809 -2.1991 -0.477751 -0.301906
lowerback 11.7627 0.0524101 -1.20117
upperback 1.21904 -0.0166324 1.22653
thorax -5.31962 0.0301967 1.96618
lowerneck -21.4295 -5.52096 -12.1358
upperneck 27.8305 -6.3863 8.7701
head 13.7293 -2.90837 4.39466
rclavicle 7.30534e-015 1.66979e-014
rhumerus -35.6716 -18.2049 -77.5594
rradius 24.3138
rwrist 11.508
rhand -15.3295 7.74704
rfingers 7.12502
rthumb 10.847 -21.9528
lclavicle 7.30534e-015 1.66979e-014
lhumerus -27.8302 3.11778 84.9131
lradius 29.155
lwrist -9.05694
lhand -18.5522 27.3902
lfingers 7.12502
lthumb 7.73739 57.2286
rfemur -11.0257 -2.38032 22.1196
rtibia 22.8718
rfoot -7.27612 4.11855
rtoes 8.22523
lfemur -0.733177 -3.67294 -21.9402
ltibia 50.8961
lfoot 12.1124 -8.06042
ltoes -6.87977
18
root -13.864 18.034 -11.2472 -2.38556 -0.468301 -0.561062
lowerback 11.8672 0.158766 -0.940607
upperback 1.2284 0.160779 1.27743
thorax -5.37503 0.112754 1.84398
lowerneck -21.1296 -5.5798 -12.3521
upperneck 27.7919 -6.49685 8.97825
head 13.6829 -2.95847 4.49713
rclavicle -5.71506e-016 -5.76476e-015
rhumerus -35.5339 -18.0924 -77.52
rradius 24.4482
rwrist 11.3103
rhand -15.207 7.94048
rfingers 7.12502
rthumb 10.9651 -21.7532
lclavicle -5.71506e-016 -5.76476e-015
lhumerus -28.1005 3.054 84.9711
lradius 29.0712
lwrist -9.43959
lhand -18.6848 27.488
lfingers 7.12502
lthumb 7.60936 57.3311
rfemur -10.192 -2.58119 22.416
rtibia 22.6177
rfoot -7.80266 4.27237
rtoes 8.28988
lfemur -1.75769 -3.32033 -21.5832
ltibia 52.3055
lfoot 11.141 -6.77472
ltoes -5.77137
19
root -13.8793 18.0408 -11.1201 -2.46121 -0.327733 -0.75323
lowerback 11.8722 0.23465 -0.739892
upperback 1.26526 0.288067 1.28654
thorax -5.34306 0.170666 1.71916
lowerneck -21.0635 -5.65193 -12.2586
upperneck 27.8176 -6.62296 8.907
head 13.6903 -3.01397 4.42915
rclavicle -4.24902e-015 5.96354e-016
rhumerus -35.2295 -17.9969 -77.592
rradius 24.5142
rwrist 11.1219
rhand -15.2015 8.10572
rfingers 7.12502
rthumb 10.9704 -21.5876
lclavicle -4.24902e-015 5.96354e-016
lhumerus -28.285 3.1298 84.9604
lradius 29.0516
lwrist -9.83705
lhand -18.8528 27.2465
lfingers 7.12502
lthumb 7.44719 57.0954
rfemur -9.47715 -2.65348 22.642
rtibia 22.348
rfoot -8.13554 4.24492
rtoes 7.01518
lfemur -2.92244 -3.07701 -21.2674
ltibia 53.5288
lfoot 10.3565 -5.84631
ltoes -4.55697
20
root -13.895 18.0428 -10.995 -2.48167 -0.199235 -0.874027
lowerback 11.8792 0.313711 -0.636961
upperback 1.25223 0.406518 1.28473
thorax -5.36413 0.226932 1.63978
lowerneck -21.0874 -5.65643 -12.0564
upperneck 27.8937 -6.64034 8.7116
head 13.7127 -3.02527 4.31329
rclavicle 6.28657e-015 -1.45113e-014
rhumerus -34.9496 -17.6958 -77.7367
rradius 24.4321
rwrist 10.6083
rhand -15.7019 7.58833
rfingers 7.12502
rthumb 10.4877 -22.13
lclavicle 6.28657e-015 -1.45113e-014
lhumerus -28.521 3.02672 85.015
lradius 29.1477
lwrist -9.80427
lhand -18.9674 27.4806
lfingers 7.12502
lthumb 7.33659 57.3334
rfemur -8.84003 -2.79236 22.7902
rtibia 22.0717
rfoot -8.30944 4.28614
rtoes 6.67472
lfemur -4.01641 -2.77706 -21.0262
ltibia 54.553
lfoot 9.45838 -5.25168
ltoes -5.37157
21
root -13.9103 18.0472 -10.8674 -2.42566 -0.189855 -0.989603
lowerback 11.7295 0.413995 -0.575749
upperback 1.22972 0.549699 1.31852
thorax -5.30912 0.296258 1.61756
lowerneck -20.8169 -5.64481 -12.1313
upperneck 27.7124 -6.61157 8.69624
head 13.5778 -3.02679 4.32073
rclavicle 6.80837e-015 -5.96354e-015
rhumerus -34.65 -17.5831 -77.7043
rradius 24.2718
rwrist 10.4446
rhand -16.0076 7.38853
rfingers 7.12502
rthumb 10.1929 -22.3445
lclavicle 6.80837e-015 -5.96354e-015
lhumerus -28.7471 3.25472 85.0318
lradius 29.1902
lwrist -9.94965
lhand -18.8038 27.8818
lfingers 7.12502
lthumb 7.49456 57.729
rfemur -8.31547 -2.9422 22.9445
rtibia 21.8349
rfoot -8.61537 4.38742
rtoes 6.92623
lfemur -5.10897 -2.37094 -20.8114
ltibia 55.3853
lfoot 8.50117 -4.84443
ltoes -6.79071
22
root -13.925 18.0492 -10.7441 -2.43602 -0.148642 -1.24645
lowerback 11.6275 0.507608 -0.393956
upperback 1.28201 0.70116 1.39901
thorax -5.20122 0.367006 1.57519
lowerneck -20.6042 -5.66583 -12.1889
upperneck 27.5347 -6.6181 8.64424
head 13.4599 -3.04508 4.30339
rclavicle 1.15295e-014 2.18663e-015
rhumerus -34.336 -18.1476 -77.2293
rradius 24.3111
rwrist 12.2079
rhand -14.8847 7.56493
rfingers 7.12502
rthumb 11.2759 -22.112
lclavicle 1.15295e-014 2.18663e-015
lhumerus -28.8801 3.48294 85.0799
lradius 29.2297
lwrist -9.98049
lhand -18.9107 28.0195
lfingers 7.12502
lthumb 7.3913 57.8703
rfemur -7.73019 -3.0079 23.2644
rtibia 21.611
rfoot -8.77809 4.33734
rtoes 7.26827
lfemur -6.1839 -2.01251 -20.4444
ltibia 56.0767
lfoot 7.49681 -4.5444
ltoes -7.36886
23
root -13.9383 18.0491 -10.6207 -2.56231 0.0695014 -1.32915
lowerback 11.7705 0.572546 -0.38199
upperback 1.2743 0.790508 1.41573
thorax -5.29181 0.411359 1.57095
lowerneck -20.5493 -5.6888 -12.1389
upperneck 27.6648 -6.65857 8.56578
head 13.503 -3.06998 4.26026
rclavicle -7.70291e-016 3.18055e-015
rhumerus -34.0575 -17.1121 -77.7909
rradius 24.4776
rwrist 9.47668
rhand -16.5506 7.1146
rfingers 7.12502
rthumb 9.66894 -22.6435
lclavicle -7.70291e-016 3.18055e-015
lhumerus -29.2249 3.5961 85.1052
lradius 29.3649
lwrist -9.72549
lhand -19.1044 27.7758
lfingers 7.12502
lthumb 7.20441 57.6331
rfemur -6.99862 -3.29712 23.3639
rtibia 21.3802
rfoot -8.95282 4.35082
rtoes 6.88605
lfemur -7.13084 -1.80622 -20.2643
ltibia 56.6285
lfoot 6.54196 -4.23969
ltoes -6.69752
24
root -13.9503 18.0527 -10.4925 -2.58508 0.257753 -1.37256
lowerback 11.7657 0.636823 -0.389509
upperback 1.25751 0.875078 1.41453
thorax -5.30953 0.453342 1.56025
lowerneck -20.6911 -5.74127 -12.2033
upperneck 27.8463 -6.7255 8.62898
head 13.6242 -3.09606 4.28985
rclavicle 1.06847e-015 1.98785e-015
rhumerus -33.8101 -17.1531 -77.7267
rradius 24.5487
rwrist 9.29981
rhand -17.0615 7.34018
rfingers 7.12502
rthumb 9.17604 -22.4402
lclavicle 1.06847e-015 1.98785e-015
lhumerus -29.6053 3.6856 85.0914
lradius 29.575
lwrist -9.34177
lhand -19.0599 27.3416
lfingers 7.12502
lthumb 7.24734 57.1975
rfemur -6.38969 -3.51544 23.4203
rtibia 21.1884
rfoot -9.26008 4.30259
rtoes 6.81006
lfemur -8.16161 -1.54838 -20.1099
ltibia 57.0368
lfoot 5.62915 -3.99487
ltoes -4.77693
25
root -13.9629 18.053 -10.3694 -2.52587 0.208498 -1.56068
lowerback 11.6161 0.763527 -0.274421
upperback 1.29429 1.0594 1.45703
thorax -5.19208 0.541524 1.51138
lowerneck -20.8219 -5.80055 -12.257
upperneck 27.9279 -6.79038 8.66088
head 13.6993 -3.12323 4.30172
rclavicle 7.50412e-015 1.35174e-014
rhumerus -33.502 -18.1335 -77.0807
rradius 24.5996
rwrist 11.8318
rhand -16.1845 9.02658
rfingers 7.12502
rthumb 10.0221 -20.7148
lclavicle 7.50412e-015 1.35174e-014
lhumerus -29.8125 4.20066 84.9941
lradius 29.7304
lwrist -9.32856
lhand -18.8173 26.9228
lfingers 7.12502
lthumb 7.48152 56.7705
rfemur -5.9616 -3.45764 23.6771
rtibia 21.0871
rfoot -9.60482 4.12938
rtoes 7.63173
lfemur -9.2188 -1.02501 -19.7626
ltibia 57.2696
lfoot 4.6017 -3.95641
ltoes -3.27922
26
root -13.9742 18.0484 -10.2509 -2.48734 0.136363 -1.80066
lowerback 11.5853 0.895748 -0.0942299
upperback 1.25439 1.25998 1.48898
thorax -5.21961 0.637077 1.41125
lowerneck -20.6962 -5.7772 -12.1195
upperneck 27.9755 -6.7983 8.58144
head 13.6841 -3.12527 4.24691
rclavicle -1.20886e-014 -7.95139e-015
rhumerus -33.2536 -17.7342 -77.2839
rradius 24.8981
rwrist 11.1795
rhand -16.3185 9.04448
rfingers 7.12502
rthumb 9.89286 -20.7031
lclavicle -1.20886e-014 -7.95139e-015
lhumerus -30.0379 4.84535 84.8277
lradius 29.666
lwrist -9.52587
lhand -18.8539 26.3735
lfingers 7.12502
lthumb 7.44621 56.2224
rfemur -5.54936 -3.4454 23.9771
rtibia 21.0669
rfoot -9.97367 4.06321
rtoes 8.18338
lfemur -10.1773 -0.397409 -19.3837
ltibia 57.3172
lfoot 3.43631 -3.83404
ltoes -3.46589
